<?xml version="1.0" encoding="UTF-8" standalone="no"?>
<svg
   width="647.16187"
   height="147.30818"
   xml:space="preserve"
   version="1.1"
   id="svg975"
   sodipodi:docname="logo_with_text_light_mode.svg"
   xmlns:inkscape="http://www.inkscape.org/namespaces/inkscape"
   xmlns:sodipodi="http://sodipodi.sourceforge.net/DTD/sodipodi-0.dtd"
   xmlns="http://www.w3.org/2000/svg"
   xmlns:svg="http://www.w3.org/2000/svg"><sodipodi:namedview
   id="namedview977"
   pagecolor="#ffffff"
   bordercolor="#666666"
   borderopacity="1.0"
   inkscape:showpageshadow="2"
   inkscape:pageopacity="0.0"
   inkscape:pagecheckerboard="0"
   inkscape:deskcolor="#d1d1d1"
   showgrid="false" />
 <defs
   id="defs11611" />
 <g
   id="g973"
   transform="translate(-31.34589,-36.345901)">
  <title
   id="title956">Layer 1</title>
  <g
   id="layer1">
   <path
   stroke-width="0.26458"
   fill="#3867d6"
   d="m 57.80422,36.3459 h 94.39154 a 26.45833,26.45833 45 0 1 26.45833,26.45833 v 94.39153 a 26.45833,26.45833 135 0 1 -26.45833,26.45833 H 57.80422 A 26.45833,26.45833 45 0 1 31.34589,157.19576 V 62.80423 A 26.45833,26.45833 135 0 1 57.80422,36.3459 Z"
   y="66.79321"
   x="31.3459"
   height="147.3082"
   width="147.3082"
   id="rect13239" />
   <text
   x="103.93691"
   y="5.86834"
   fill="#000000"
   font-family="sans-serif"
   font-size="266.667px"
   font-weight="normal"
   font-style="normal"
   id="text13295"
   transform="matrix(0.264583,0,0,0.264583,-27.5,-32)"
   xml:space="preserve" />
   <g
   fill="#ffffff"
   transform="matrix(0.207407,0,0,0.207407,51.9037,85.0791)"
   id="g13749">
    <path
   fill="#ffffff"
   id="path13714"
   d="m 442.18196,-146.79946 c -38.498,0 -69.818,31.32 -69.818,69.818 0,19.926 8.405,37.916 21.839,50.649 l -70.681,159.04 c -1.806,-0.141 -3.621,-0.234 -5.461,-0.234 -5.916,0 -11.661,0.746 -17.15,2.138 l -51.11,-76.667 c 8.758,-11.667 13.957,-26.155 13.957,-41.835 0,-38.498 -31.32,-69.818 -69.818,-69.818 -38.498,0 -69.818,31.32 -69.818,69.818 0,19.928 8.405,37.916 21.839,50.651 l -70.683,159.038 c -1.804,-0.141 -3.62,-0.234 -5.46,-0.234 -38.498,0 -69.818,31.32 -69.818,69.818 0,38.498 31.32,69.818 69.818,69.818 38.498,0 69.818,-31.32 69.818,-69.818 0,-19.926 -8.405,-37.917 -21.839,-50.649 l 70.684,-159.04 c 1.803,0.141 3.62,0.234 5.458,0.234 5.916,0 11.663,-0.746 17.152,-2.138 l 51.108,76.667 c -8.758,11.667 -13.957,26.155 -13.957,41.835 0,38.498 31.32,69.818 69.818,69.818 38.498,0 69.818,-31.32 69.818,-69.818 0,-19.926 -8.405,-37.916 -21.838,-50.649 l 70.682,-159.04 c 1.803,0.141 3.618,0.234 5.458,0.234 38.498,0 69.818,-31.32 69.818,-69.818 0,-38.498 -31.318,-69.818 -69.816,-69.818 z" />
    <g
   fill="#ffffff"
   id="g13720">
     <path
   fill="#ffffff"
   id="path13716"
   d="m 318.06096,179.01854 c -12.833,0 -23.273,10.44 -23.273,23.273 0,12.833 10.44,23.273 23.273,23.273 12.833,0 23.273,-10.44 23.273,-23.273 -10e-4,-12.833 -10.441,-23.273 -23.273,-23.273 z" />
     <path
   fill="#ffffff"
   id="path13718"
   d="m 80.99196,274.97854 c -1.091,-0.6 -2.245,-1.097 -3.437,-1.517 -2.423,-0.86 -5.021,-1.351 -7.737,-1.351 -12.833,0 -23.273,10.44 -23.273,23.273 0,12.833 10.44,23.273 23.273,23.273 12.833,0 23.273,-10.44 23.273,-23.273 0,-8.786 -4.895,-16.446 -12.099,-20.405 z" />
    </g>
    <g
   fill="#ffffff"
   id="g13726">
     <path
   fill="#ffffff"
   id="path13722"
   d="m 263.75796,16.10954 c 0,-38.498 -31.32,-69.818 -69.818,-69.818 -38.498,0 -69.818,31.32 -69.818,69.818 0,19.928 8.405,37.916 21.839,50.651 l -18.862,42.44 h 50.935 l 10.448,-23.507 c 1.803,0.141 3.62,0.234 5.458,0.234 5.916,0 11.663,-0.746 17.152,-2.138 l 16.939,25.411 h 55.94 l -34.171,-51.256 c 8.758,-11.667 13.958,-26.155 13.958,-41.835 z" />
     <path
   fill="#ffffff"
   id="path13724"
   d="m 442.18196,-146.79946 c -38.498,0 -69.818,31.32 -69.818,69.818 0,19.926 8.405,37.916 21.839,50.649 l -60.235,135.533 h 50.935 l 51.819,-116.598 c 1.804,0.141 3.62,0.234 5.46,0.234 38.498,0 69.818,-31.32 69.818,-69.818 0,-38.498 -31.32,-69.818 -69.818,-69.818 z" />
    </g>
    <g
   fill="#ffffff"
   id="g13732">
     <path
   fill="#ffffff"
   id="path13728"
   d="m 193.93896,-7.16346 c -12.833,0 -23.273,10.44 -23.273,23.273 0,12.833 10.44,23.273 23.273,23.273 12.833,0 23.273,-10.44 23.273,-23.273 0,-12.833 -10.44,-23.273 -23.273,-23.273 z" />
     <path
   fill="#ffffff"
   id="path13730"
   d="m 465.45496,-76.98146 c 0,-12.833 -10.44,-23.273 -23.273,-23.273 -12.833,0 -23.273,10.44 -23.273,23.273 0,12.833 10.44,23.273 23.273,23.273 12.832,0 23.273,-10.44 23.273,-23.273 z" />
    </g>
   </g>
  </g>
  <text
   font-style="normal"
   font-weight="bold"
   xml:space="preserve"
   text-anchor="start"
   font-family="'Open Sans'"
   font-size="100px"
   id="svg_1"
   y="145.25"
   x="182.99992"
   stroke-width="0"
   stroke="#000000"
   fill="#000000">NodeFlow</text>
 </g>
</svg>
