<?xml version="1.0" encoding="UTF-8" standalone="no"?>
<!-- Created with Inkscape (http://www.inkscape.org/) -->

<svg
   width="147.3082mm"
   height="147.3082mm"
   viewBox="0 0 147.3082 147.3082"
   version="1.1"
   id="svg11614"
   xml:space="preserve"
   xmlns="http://www.w3.org/2000/svg"
   xmlns:svg="http://www.w3.org/2000/svg"><defs
     id="defs11611" /><g
     id="layer1"
     transform="translate(-31.3459,-66.793203)"><path
       style="fill:#3867d6;fill-opacity:1;stroke-width:0.264583"
       id="rect13239"
       width="147.3082"
       height="147.3082"
       x="31.345901"
       y="66.793205"
       d="M 57.804234,66.793205 H 152.19577 A 26.458333,26.458333 45 0 1 178.6541,93.251538 V 187.64307 A 26.458333,26.458333 135 0 1 152.19577,214.1014 H 57.804234 A 26.458333,26.458333 45 0 1 31.345901,187.64307 l 0,-94.391532 A 26.458333,26.458333 135 0 1 57.804234,66.793205 Z" /><g
       id="g13749"
       transform="matrix(0.20740749,0,0,0.20740749,51.903683,85.079138)"
       style="fill:#ffffff;fill-opacity:1"><path
         style="fill:#ffffff;fill-opacity:1"
         d="m 442.182,0 c -38.498,0 -69.818,31.32 -69.818,69.818 0,19.926 8.405,37.916 21.839,50.649 l -70.681,159.04 c -1.806,-0.141 -3.621,-0.234 -5.461,-0.234 -5.916,0 -11.661,0.746 -17.15,2.138 l -51.11,-76.667 c 8.758,-11.667 13.957,-26.155 13.957,-41.835 0,-38.498 -31.32,-69.818 -69.818,-69.818 -38.498,0 -69.818,31.32 -69.818,69.818 0,19.928 8.405,37.916 21.839,50.651 L 75.278,372.598 c -1.804,-0.141 -3.62,-0.234 -5.46,-0.234 C 31.32,372.364 0,403.684 0,442.182 0,480.68 31.32,512 69.818,512 c 38.498,0 69.818,-31.32 69.818,-69.818 0,-19.926 -8.405,-37.917 -21.839,-50.649 l 70.684,-159.04 c 1.803,0.141 3.62,0.234 5.458,0.234 5.916,0 11.663,-0.746 17.152,-2.138 l 51.108,76.667 c -8.758,11.667 -13.957,26.155 -13.957,41.835 0,38.498 31.32,69.818 69.818,69.818 38.498,0 69.818,-31.32 69.818,-69.818 0,-19.926 -8.405,-37.916 -21.838,-50.649 l 70.682,-159.04 c 1.803,0.141 3.618,0.234 5.458,0.234 38.498,0 69.818,-31.32 69.818,-69.818 C 511.998,31.32 480.68,0 442.182,0 Z"
         id="path13714" /><g
         id="g13720"
         style="fill:#ffffff;fill-opacity:1">
	<path
   style="fill:#ffffff;fill-opacity:1"
   d="m 318.061,325.818 c -12.833,0 -23.273,10.44 -23.273,23.273 0,12.833 10.44,23.273 23.273,23.273 12.833,0 23.273,-10.44 23.273,-23.273 -10e-4,-12.833 -10.441,-23.273 -23.273,-23.273 z"
   id="path13716" />
	<path
   style="fill:#ffffff;fill-opacity:1"
   d="m 80.992,421.778 c -1.091,-0.6 -2.245,-1.097 -3.437,-1.517 -2.423,-0.86 -5.021,-1.351 -7.737,-1.351 -12.833,0 -23.273,10.44 -23.273,23.273 0,12.833 10.44,23.273 23.273,23.273 12.833,0 23.273,-10.44 23.273,-23.273 0,-8.786 -4.895,-16.446 -12.099,-20.405 z"
   id="path13718" />
</g><g
         id="g13726"
         style="fill:#ffffff;fill-opacity:1">
	<path
   style="fill:#ffffff;fill-opacity:1"
   d="m 263.758,162.909 c 0,-38.498 -31.32,-69.818 -69.818,-69.818 -38.498,0 -69.818,31.32 -69.818,69.818 0,19.928 8.405,37.916 21.839,50.651 L 127.099,256 h 50.935 l 10.448,-23.507 c 1.803,0.141 3.62,0.234 5.458,0.234 5.916,0 11.663,-0.746 17.152,-2.138 L 228.031,256 h 55.94 L 249.8,204.744 c 8.758,-11.667 13.958,-26.155 13.958,-41.835 z"
   id="path13722" />
	<path
   style="fill:#ffffff;fill-opacity:1"
   d="m 442.182,0 c -38.498,0 -69.818,31.32 -69.818,69.818 0,19.926 8.405,37.916 21.839,50.649 L 333.968,256 h 50.935 l 51.819,-116.598 c 1.804,0.141 3.62,0.234 5.46,0.234 C 480.68,139.636 512,108.316 512,69.818 512,31.32 480.68,0 442.182,0 Z"
   id="path13724" />
</g><g
         id="g13732"
         style="fill:#ffffff;fill-opacity:1">
	<path
   style="fill:#ffffff;fill-opacity:1"
   d="m 193.939,139.636 c -12.833,0 -23.273,10.44 -23.273,23.273 0,12.833 10.44,23.273 23.273,23.273 12.833,0 23.273,-10.44 23.273,-23.273 0,-12.833 -10.44,-23.273 -23.273,-23.273 z"
   id="path13728" />
	<path
   style="fill:#ffffff;fill-opacity:1"
   d="m 465.455,69.818 c 0,-12.833 -10.44,-23.273 -23.273,-23.273 -12.833,0 -23.273,10.44 -23.273,23.273 0,12.833 10.44,23.273 23.273,23.273 12.832,0 23.273,-10.44 23.273,-23.273 z"
   id="path13730" />
</g></g></g></svg>
