<?xml version="1.0" encoding="UTF-8" standalone="no"?>
<!-- Created with Inkscape (http://www.inkscape.org/) -->

<svg
   width="79.375mm"
   height="79.375mm"
   viewBox="0 0 79.375 79.375"
   version="1.1"
   id="svg1"
   xml:space="preserve"
   inkscape:version="1.3.2 (091e20e, 2023-11-25)"
   sodipodi:docname="ocr4all.svg"
   xmlns:inkscape="http://www.inkscape.org/namespaces/inkscape"
   xmlns:sodipodi="http://sodipodi.sourceforge.net/DTD/sodipodi-0.dtd"
   xmlns="http://www.w3.org/2000/svg"
   xmlns:svg="http://www.w3.org/2000/svg"><sodipodi:namedview
     id="namedview1"
     pagecolor="#ffffff"
     bordercolor="#000000"
     borderopacity="0.25"
     inkscape:showpageshadow="2"
     inkscape:pageopacity="0.0"
     inkscape:pagecheckerboard="0"
     inkscape:deskcolor="#d1d1d1"
     inkscape:document-units="px"
     showguides="true"
     showgrid="false"
     inkscape:zoom="1.9308077"
     inkscape:cx="159.25977"
     inkscape:cy="144.49911"
     inkscape:window-width="1920"
     inkscape:window-height="1027"
     inkscape:window-x="1920"
     inkscape:window-y="25"
     inkscape:window-maximized="1"
     inkscape:current-layer="layer1"><sodipodi:guide
       position="12.069112,297"
       orientation="0,1"
       id="guide1"
       inkscape:locked="false"
       inkscape:label=""
       inkscape:color="rgb(0,134,229)" /><sodipodi:guide
       position="-9.3823243e-07,222.91667"
       orientation="-1,0"
       id="guide6"
       inkscape:locked="false"
       inkscape:label=""
       inkscape:color="rgb(0,134,229)" /><sodipodi:guide
       position="79.375002,275.74391"
       orientation="-1,0"
       id="guide7"
       inkscape:locked="false"
       inkscape:label=""
       inkscape:color="rgb(0,134,229)" /><sodipodi:guide
       position="10.038306,217.625"
       orientation="0,1"
       id="guide8"
       inkscape:locked="false"
       inkscape:label=""
       inkscape:color="rgb(0,134,229)" /><inkscape:grid
       id="grid9"
       units="px"
       originx="-52.916668"
       originy="-52.916668"
       spacingx="0.26458333"
       spacingy="0.26458334"
       empcolor="#0099e5"
       empopacity="0.30196078"
       color="#0099e5"
       opacity="0.14901961"
       empspacing="5"
       dotted="false"
       gridanglex="30"
       gridanglez="30"
       visible="false" /><sodipodi:guide
       position="9.2604167,41.775769"
       orientation="-1,0"
       id="guide9"
       inkscape:locked="false"
       inkscape:label=""
       inkscape:color="rgb(0,134,229)" /><sodipodi:guide
       position="51.935303,70.114583"
       orientation="0,1"
       id="guide11"
       inkscape:locked="false"
       inkscape:label=""
       inkscape:color="rgb(0,134,229)" /><sodipodi:guide
       position="-13.557722,9.2604167"
       orientation="0,1"
       id="guide12"
       inkscape:locked="false"
       inkscape:label=""
       inkscape:color="rgb(0,134,229)" /><sodipodi:guide
       position="70.114583,25.658275"
       orientation="-1,0"
       id="guide13"
       inkscape:locked="false"
       inkscape:label=""
       inkscape:color="rgb(0,134,229)" /></sodipodi:namedview><defs
     id="defs1" /><g
     inkscape:label="Layer 1"
     inkscape:groupmode="layer"
     id="layer1"
     transform="translate(-52.916668,-52.916668)"><rect
       style="fill:#4949ff;fill-opacity:1;stroke-width:0.268278"
       id="rect1"
       width="79.375"
       height="79.375"
       x="52.916668"
       y="52.916668"
       ry="12.288583" /><g
       id="layer101"
       fill="#000000"
       stroke="none"
       style="fill:#007dcb;fill-opacity:1"
       transform="matrix(0.00606927,0,0,0.00605437,55.508211,59.030319)"><path
         d="M 5156.5366,10416.097 C 4151.6944,10348.916 3232.3131,9979.4205 2458.6655,9333.031 2334.5221,9229.5361 2140.2106,9046.1505 2043.0549,8939.932 1989.0794,8880.9218 1943.2003,8830.99 1939.602,8828.2665 1924.3089,8813.7409 1746.1901,8594.0412 1701.2106,8534.1231 1250.5159,7927.6793 940.15719,7224.0956 808.81706,6508.7098 c -53.0759,-286.8806 -68.3689,-417.611 -84.5615,-724.4643 -8.0963,-169.7679 -8.0963,-260.5529 0,-431.2287 16.1926,-305.9455 31.4856,-436.6759 84.5615,-723.5565 19.791,-109.8498 61.1721,-287.7884 91.75823,-396.7304 C 1184.8458,3223.2007 1766.8807,2347.1255 2580.1102,1706.1834 3259.3008,1171.4598 4089.6226,832.83173 4949.6309,740.23103 c 609.0226,-66.27301 1236.9365,-7.2628 1821.6702,171.5837 52.1762,16.3413 107.9508,32.6826 124.1434,37.2218 59.373,18.157 332.8484,125.28327 424.6066,167.04437 297.7644,135.2697 551.4488,282.3414 836.6189,483.8841 143.9345,102.587 494.7747,399.454 494.7747,419.4267 0,4.5392 -44.9795,82.6143 -99.8545,174.3071 -55.7746,90.785 -259.9816,434.8602 -455.1927,763.5019 l -354.4385,596.4574 h -481.2808 -481.2808 l 25.1885,-42.6689 c 21.5902,-38.1297 215.9017,-367.6793 634.2111,-1073.0787 104.3525,-175.2151 124.1435,-213.3448 113.3484,-223.3311 -22.4897,-21.7884 -182.6168,-119.8362 -299.5635,-184.2935 -729.5677,-399.454 -1567.0862,-546.5257 -2394.7092,-419.4267 -188.0144,28.1433 -479.4816,98.0478 -580.2357,137.9932 l -25.1885,9.0785 V 3566.368 5374.8052 l 20.6905,17.2491 c 10.7951,9.0785 90.8586,82.6144 177.2193,163.413 86.3607,80.7986 188.0144,174.3072 224.8976,208.8055 36.8832,33.5904 93.5574,86.2457 125.9426,117.1126 32.3852,30.8669 105.2521,98.0478 161.9262,150.7031 56.6742,52.6553 109.75,101.6792 116.9468,108.942 7.1967,7.2628 60.2725,56.2867 116.9467,108.942 56.6742,52.6553 109.75,101.6792 116.9467,108.942 7.1968,7.2628 60.2726,56.2867 116.9468,108.942 56.6741,52.6553 129.541,119.8362 161.9262,150.7031 57.5738,54.471 165.5246,154.3345 185.3156,171.5837 5.3975,5.4471 54.875,51.7474 110.6496,103.4949 54.875,51.7474 109.75,102.587 120.5451,111.6655 10.7951,9.9864 40.4815,37.2219 64.7705,60.826 25.1885,23.6041 93.5574,87.1536 152.9303,141.6246 59.373,55.3788 114.248,106.2184 121.4447,113.4812 7.1967,7.2628 60.2725,56.2867 116.9467,108.942 56.6742,52.6553 109.75,101.6792 116.9467,108.942 7.1968,7.2628 60.2726,56.2867 116.9468,108.942 56.6742,52.6553 129.541,119.8362 161.9262,150.7031 32.3853,29.959 82.7623,77.1672 112.4488,104.4027 51.2766,48.1161 178.1189,165.2287 413.8115,384.9284 59.373,54.471 129.541,120.7441 157.4283,145.256 71.9672,66.2731 139.4365,128.9147 219.5,204.2663 38.6824,36.314 72.8668,62.6416 76.4652,58.1024 2.6987,-4.5393 31.4856,-30.8669 63.8709,-58.1024 208.7049,-177.0308 429.1045,-411.2561 591.9304,-630.0479 85.461,-112.5734 211.4037,-305.0376 278.8729,-423.966 56.6742,-99.8635 186.2152,-358.6007 208.705,-419.4266 l 13.4938,-33.5905 85.4611,66.2731 c 46.7787,36.314 170.9221,130.7304 274.375,210.6211 304.9606,233.3175 328.3506,251.4745 333.7476,260.553 12.595,19.9727 -209.6041,422.1502 -349.9402,633.6793 -58.4734,88.0614 -253.6845,353.1536 -291.4673,394.9147 -8.9959,9.9864 -40.4815,47.2082 -69.2684,81.7065 -89.0594,107.1263 -426.4058,440.3072 -544.2521,539.2629 -518.164,433.9519 -1067.8136,731.7274 -1705.6231,921.4684 -493.875,147.072 -1066.914,211.529 -1574.2829,177.031 z m 719.6722,-865.182 c 263.58,-35.4061 489.3771,-84.43 728.6681,-159.7816 157.4283,-49.0239 517.2644,-200.6348 517.2644,-217.884 0,-5.4471 -58.4734,-61.7337 -256.3832,-245.1194 -28.7869,-27.2355 -57.5738,-53.5632 -63.8709,-59.0103 -5.3976,-4.5392 -54.875,-51.7474 -110.6496,-103.4949 -54.875,-51.7474 -109.75,-102.587 -120.5451,-111.6655 -10.7951,-9.9864 -39.582,-37.2219 -64.7705,-60.826 -24.289,-23.6041 -93.5574,-87.1536 -152.9304,-141.6246 -59.3729,-55.3788 -114.2479,-106.2184 -121.4446,-113.4812 -7.1968,-7.2628 -60.2726,-56.2867 -116.9468,-108.942 -56.6742,-52.6553 -129.541,-119.8362 -161.9262,-150.7031 -32.3853,-29.9591 -84.5615,-78.983 -116.9467,-108.942 -32.3853,-29.0512 -84.5615,-78.0751 -116.9468,-108.942 -32.3852,-29.9591 -84.5615,-78.983 -116.9467,-108.942 -32.3852,-29.0512 -84.5615,-78.0751 -116.9467,-108.942 -32.3853,-29.9591 -82.7623,-77.1673 -112.4488,-104.4028 C 5130.4485,7313.9727 4822.7887,7028 4778.7087,6986.2389 c -29.6864,-28.1434 -104.3524,-98.0478 -166.4241,-155.2424 -62.0718,-57.1945 -136.7378,-127.099 -166.4242,-155.2423 -29.6865,-27.2355 -84.5615,-78.983 -121.4447,-113.4813 l -67.4693,-62.6416 -2.6988,1438.0343 c -0.8996,791.6452 0.8996,1441.6658 4.498,1445.2972 21.5902,19.9727 330.1496,99.8635 501.9713,129.8225 284.2706,49.9318 404.8156,59.0103 733.1661,55.3789 182.6168,-1.8157 310.3586,-8.1707 382.3258,-17.2492 z M 3438.3193,5570.9008 V 2140.1357 l -54.875,33.5904 c -55.7746,35.4062 -197.0103,134.3618 -238.3914,167.0444 -12.5943,10.8942 -36.8832,29.0512 -53.0758,41.7611 -96.2562,72.628 -186.2152,152.5188 -331.0492,295.0513 -763.7521,748.9762 -1198.2542,1797.5429 -1198.2542,2891.5022 0,731.727 193.4119,1445.2971 561.3443,2074.4371 241.9898,413.9796 590.1312,815.2493 958.9632,1105.7613 80.0635,62.6417 345.4426,251.4745 354.4385,251.4745 0.8996,0 0.8996,-1543.345 0.8996,-3429.8572 z"
         id="path2"
         style="fill:#ffffff;fill-opacity:1;stroke-width:0.903711" /><path
         d="m 8831.5259,6508.722 c -263.58,-58.1024 -470.4857,-273.2629 -543.3525,-564.6827 -21.5902,-87.1536 -24.289,-270.5393 -5.3976,-363.14 59.373,-284.157 264.4795,-512.0274 522.6619,-580.1161 83.6619,-22.6963 246.4878,-22.6963 328.3505,0 74.666,19.9727 170.9221,68.0887 232.0942,114.3891 26.0882,19.9727 49.4775,36.314 51.2767,36.314 2.6988,0 4.4979,-21.7884 4.4979,-49.0239 0,-29.9591 4.498,-52.6553 12.5943,-59.0103 8.0963,-7.2628 81.8627,-9.9863 249.1869,-8.1706 l 237.491,2.7235 2.699,710.8465 1.799,709.9387 -249.186,-1.8157 -250.0862,-2.7235 -2.6988,-51.7475 c -1.7992,-29.0512 -4.4979,-52.6553 -7.1967,-52.6553 -2.6988,0 -21.5902,13.6178 -41.3811,30.8669 -52.1763,45.3925 -171.8218,103.4949 -254.5841,123.4676 -83.6619,20.8806 -206.0061,22.6963 -288.7684,4.5393 z m 396.7192,-428.5052 c 78.2644,-27.2355 151.1312,-91.6929 188.914,-167.0444 88.1598,-174.3072 17.9918,-387.6519 -155.6291,-472.9898 -54.875,-26.3277 -67.4693,-29.0512 -141.2357,-29.0512 -102.5533,0 -165.5246,23.6041 -227.5963,83.5222 -58.4734,56.2867 -89.0594,112.5734 -106.1517,192.4641 -53.0758,256.9216 197.0103,480.2527 441.6988,393.0991 z"
         id="path4"
         style="fill:#ffffff;fill-opacity:1;stroke-width:0.903711" /><path
         d="m 7019.7511,6299.9165 v -177.0308 h -485.7787 -485.7787 v -218.7918 -217.884 l 42.2807,-69.9044 c 83.6619,-138.9011 321.1537,-535.6315 385.0246,-641.85 35.9837,-59.9181 123.2439,-205.1741 193.4119,-322.2867 71.0677,-117.1127 167.3238,-278.71 215.9017,-358.6008 47.6783,-79.8908 92.6578,-154.3345 99.8545,-165.2287 12.5943,-20.8805 12.5943,-20.8805 275.2746,-20.8805 h 263.58 v 785.2902 785.2902 h 134.9385 c 74.666,0 134.9385,0.9079 134.9385,2.7236 0,4.5392 -83.6619,220.6075 -129.541,335.9045 l -43.1803,106.2184 h -38.6824 c -20.6905,0 -42.2807,5.4471 -48.5778,11.8021 -5.3976,7.2628 -10.7951,73.5358 -11.6947,175.215 l -2.6988,162.5052 -249.1865,2.7235 -250.0861,1.8157 z m -1.7991,-973.2152 c -1.7992,-270.5393 -5.3976,-352.2458 -13.4939,-352.2458 -6.2971,0 -98.0553,138.9011 -204.207,308.669 -106.1516,169.768 -198.8094,316.8397 -206.0061,326.826 -6.2972,9.9864 -19.791,29.0512 -27.8873,43.5768 l -16.1927,24.5119 h 234.7931 234.793 z"
         id="path6"
         style="fill:#ffffff;fill-opacity:1;stroke-width:0.903711" /><path
         d="m 10262.774,6447.896 c -2.699,-6.3549 -3.599,-520.198 -2.699,-1142.0752 l 2.699,-1130.2733 h 251.885 251.885 l 2.699,1142.0753 1.799,1141.1674 h -251.885 c -193.412,0 -253.685,-2.7235 -256.383,-10.8942 z"
         id="path8"
         style="fill:#ffffff;fill-opacity:1;stroke-width:0.903711" /><path
         d="m 11103.891,5314.8993 v -1143.891 l 254.584,1.8157 253.684,2.7235 2.699,1142.0753 1.799,1141.1674 h -256.383 -256.383 z"
         id="path10"
         style="fill:#ffffff;fill-opacity:1;stroke-width:0.903711" /></g></g></svg>
